<svg xmlns="http://www.w3.org/2000/svg" viewBox="0 0 250 250"><defs><style>.cls-1{fill:#dedcdc;}</style></defs><title>360-icon</title><g id="Layer_2" data-name="Layer 2"><g id="Layer_1-2" data-name="Layer 1"><path class="cls-1" d="M80.84,115.34h-7A11.38,11.38,0,0,1,85.64,105a11.09,11.09,0,0,1,7.89,3A9.41,9.41,0,0,1,96.71,115a8.26,8.26,0,0,1-1.39,4.65,9.92,9.92,0,0,1-4,3.4,10.31,10.31,0,0,1,5.44,3.62,9.8,9.8,0,0,1,2,6.09,11.52,11.52,0,0,1-3.79,8.72,13.53,13.53,0,0,1-9.66,3.57,12.55,12.55,0,0,1-9.07-3.36,13.21,13.21,0,0,1-3.84-9.16h7.19a7.24,7.24,0,0,0,2.07,4.4,6.32,6.32,0,0,0,8.26-.2,5.49,5.49,0,0,0-.58-8.39,10.51,10.51,0,0,0-6.52-1.84v-6.23a11.69,11.69,0,0,0,3.91-.82,4.84,4.84,0,0,0,2-1.68,4,4,0,0,0,.71-2.26A3.4,3.4,0,0,0,88.27,113a4,4,0,0,0-2.86-1,4.63,4.63,0,0,0-2.83.95A4.72,4.72,0,0,0,80.84,115.34Z"/><path class="cls-1" d="M116,105l6.2,3.1-6.69,13a11.13,11.13,0,0,1,8.26,3.48,11.89,11.89,0,0,1,3.4,8.65,12,12,0,0,1-20.54,8.33,11.59,11.59,0,0,1-3.44-8.25,12.41,12.41,0,0,1,.53-3.56,36.26,36.26,0,0,1,2.45-5.51Zm-.91,23a4.48,4.48,0,0,0-3.4,1.47,5.55,5.55,0,0,0,.06,7.39,4.51,4.51,0,0,0,3.36,1.51,4.71,4.71,0,0,0,3.48-1.48,5.51,5.51,0,0,0,0-7.42A4.72,4.72,0,0,0,115.05,127.92Z"/><path class="cls-1" d="M145.1,105a12.54,12.54,0,0,1,7.21,2.05,13,13,0,0,1,4.68,6.27q1.65,4.22,1.65,11.75T157,136.88a13.31,13.31,0,0,1-4.51,6.22,12.14,12.14,0,0,1-7.14,2,12.58,12.58,0,0,1-7.25-2,13.06,13.06,0,0,1-4.6-6.08q-1.66-4.08-1.66-11.61,0-10.52,3.25-15.25A11.56,11.56,0,0,1,145.1,105Zm.17,6.91A5,5,0,0,0,142,113a7.66,7.66,0,0,0-2.18,4.07,35.7,35.7,0,0,0-.75,8.44q0,7.25,1.72,10a5.13,5.13,0,0,0,4.47,2.77,4.72,4.72,0,0,0,4.2-2.62q1.89-3.17,1.89-10.6t-1.7-10.39A5,5,0,0,0,145.27,111.86Z"/><path class="cls-1" d="M169.6,96.09a8,8,0,0,1,6,2.65,10,10,0,0,1,0,13.26,8,8,0,0,1-6,2.64,7.74,7.74,0,0,1-5.87-2.66,10,10,0,0,1,0-13.21A7.73,7.73,0,0,1,169.6,96.09Zm.08,4.73a2.73,2.73,0,0,0-2.21,1.22,5.34,5.34,0,0,0-.94,3.32,5.48,5.48,0,0,0,.92,3.39,2.73,2.73,0,0,0,2.22,1.21,2.79,2.79,0,0,0,2.25-1.22,6.47,6.47,0,0,0,0-6.72A2.78,2.78,0,0,0,169.68,100.81Z"/><path class="cls-1" d="M246.45,125H250A125,125,0,1,0,125,250,125,125,0,0,0,250,125h-7.1a117.9,117.9,0,1,1-34.53-83.37A117.52,117.52,0,0,1,242.9,125Z"/><path class="cls-1" d="M188,125h3.55c0-34-7.12-64.88-18.84-87.51-5.87-11.31-12.9-20.59-20.92-27.14S134.64,0,125,0,106.25,3.8,98.25,10.34c-12,9.84-21.86,25.77-28.81,45.58s-11,43.55-11,69.08c0,34,7.12,64.88,18.84,87.51,5.87,11.31,12.9,20.59,20.92,27.14S115.36,250,125,250s18.75-3.8,26.75-10.34c12-9.84,21.86-25.77,28.81-45.58s11-43.55,11-69.08h-7.1c0,33-7,62.92-18,84.25-5.53,10.67-12.06,19.17-19.11,24.91S132.75,242.9,125,242.9s-15.21-3-22.27-8.75c-10.58-8.6-20-23.47-26.6-42.43s-10.56-42-10.55-66.73c0-33,7-62.92,18-84.25,5.52-10.67,12.06-19.17,19.11-24.91S117.25,7.1,125,7.1s15.21,3,22.27,8.75c10.58,8.6,20,23.47,26.6,42.43s10.56,42,10.55,66.73Z"/><path class="cls-1" d="M125,188v3.55c34,0,64.88-7.12,87.51-18.84,11.31-5.87,20.59-12.9,27.14-20.92S250,134.64,250,125s-3.8-18.75-10.34-26.75c-9.84-12-25.77-21.86-45.58-28.81s-43.55-11-69.08-11c-34,0-64.88,7.12-87.51,18.84-11.31,5.87-20.59,12.9-27.14,20.92S0,115.36,0,125s3.8,18.75,10.34,26.75c9.84,12,25.77,21.86,45.58,28.81s43.55,11,69.08,11v-7.1c-33,0-62.92-7-84.25-18-10.67-5.53-19.17-12.06-24.91-19.11S7.1,132.75,7.1,125s3-15.21,8.75-22.27c8.6-10.58,23.47-20,42.43-26.6s42-10.56,66.73-10.55c33,0,62.92,7,84.25,18,10.67,5.53,19.17,12.06,24.91,19.11s8.74,14.52,8.75,22.27-3,15.21-8.75,22.27c-8.6,10.58-23.47,20-42.43,26.6s-42,10.56-66.73,10.55Z"/></g></g></svg>