<?xml version="1.0" encoding="UTF-8"?>
<svg width="30px" height="30px" viewBox="0 0 30 30" version="1.1" xmlns="http://www.w3.org/2000/svg" xmlns:xlink="http://www.w3.org/1999/xlink">
    <!-- Generator: Sketch 48.2 (47327) - http://www.bohemiancoding.com/sketch -->
    <title>3. Icons/ic_account_circle</title>
    <desc>Created with Sketch.</desc>
    <defs>
        <path d="M15,5 C9.48,5 5,9.48 5,15 C5,20.52 9.48,25 15,25 C20.52,25 25,20.52 25,15 C25,9.48 20.52,5 15,5 L15,5 Z M15,8 C16.66,8 18,9.34 18,11 C18,12.66 16.66,14 15,14 C13.34,14 12,12.66 12,11 C12,9.34 13.34,8 15,8 L15,8 Z M15,22.2 C12.5,22.2 10.29,20.92 9,18.98 C9.03,16.99 13,15.9 15,15.9 C16.99,15.9 20.97,16.99 21,18.98 C19.71,20.92 17.5,22.2 15,22.2 L15,22.2 Z" id="path-1"></path>
    </defs>
    <g id="Symbols" stroke="none" stroke-width="1" fill="none" fill-rule="evenodd">
        <g id="3.-Icons/ic_account_circle">
            <mask id="mask-2" fill="white">
                <use xlink:href="#path-1"></use>
            </mask>
            <g id="Icon"></g>
            <g id="5.-Colors/Gray-85" mask="url(#mask-2)" fill="#D8D8D8">
                <g transform="translate(2.000000, 2.000000)" id="Gray-85">
                    <rect x="0" y="0" width="26" height="26"></rect>
                </g>
            </g>
        </g>
    </g>
</svg>