<?xml version="1.0" encoding="UTF-8"?>
<svg width="30px" height="30px" viewBox="0 0 30 30" version="1.1" xmlns="http://www.w3.org/2000/svg" xmlns:xlink="http://www.w3.org/1999/xlink">
    <!-- Generator: Sketch 48.2 (47327) - http://www.bohemiancoding.com/sketch -->
    <title>3. Icons/ic_cake</title>
    <desc>Created with Sketch.</desc>
    <defs>
        <path d="M15,9 C16.11,9 17,8.1 17,7 C17,6.62 16.9,6.27 16.71,5.97 L15,3 L13.29,5.97 C13.1,6.27 13,6.62 13,7 C13,8.1 13.9,9 15,9 L15,9 Z M19.6,18.99 L18.53,17.92 L17.45,18.99 C16.15,20.29 13.87,20.3 12.56,18.99 L11.49,17.92 L10.4,18.99 C9.75,19.64 8.88,20 7.96,20 C7.23,20 6.56,19.77 6,19.39 L6,24 C6,24.55 6.45,25 7,25 L23,25 C23.55,25 24,24.55 24,24 L24,19.39 C23.44,19.77 22.77,20 22.04,20 C21.12,20 20.25,19.64 19.6,18.99 L19.6,18.99 Z M21,12 L16,12 L16,10 L14,10 L14,12 L9,12 C7.34,12 6,13.34 6,15 L6,16.54 C6,17.62 6.88,18.5 7.96,18.5 C8.48,18.5 8.98,18.3 9.34,17.93 L11.48,15.8 L13.61,17.93 C14.35,18.67 15.64,18.67 16.38,17.93 L18.52,15.8 L20.65,17.93 C21.02,18.3 21.51,18.5 22.03,18.5 C23.11,18.5 23.99,17.62 23.99,16.54 L23.99,15 C24,13.34 22.66,12 21,12 L21,12 Z" id="path-1"></path>
    </defs>
    <g id="Symbols" stroke="none" stroke-width="1" fill="none" fill-rule="evenodd">
        <g id="3.-Icons/ic_cake">
            <mask id="mask-2" fill="white">
                <use xlink:href="#path-1"></use>
            </mask>
            <g id="Icon"></g>
            <g id="5.-Colors/Gray-85" mask="url(#mask-2)" fill="#D8D8D8">
                <g transform="translate(2.000000, 1.000000)" id="Gray-85">
                    <rect x="0" y="0" width="26" height="26"></rect>
                </g>
            </g>
        </g>
    </g>
</svg>