<?xml version="1.0" encoding="UTF-8"?>
<svg width="30px" height="30px" viewBox="0 0 30 30" version="1.1" xmlns="http://www.w3.org/2000/svg" xmlns:xlink="http://www.w3.org/1999/xlink">
    <!-- Generator: Sketch 48.2 (47327) - http://www.bohemiancoding.com/sketch -->
    <title>3. Icons/ic_comment</title>
    <desc>Created with Sketch.</desc>
    <defs>
        <path d="M24.99,8 C24.99,6.9 24.1,6 23,6 L7,6 C5.9,6 5,6.9 5,8 L5,20 C5,21.1 5.9,22 7,22 L21,22 L25,26 L24.99,8 L24.99,8 Z M21,18 L9,18 L9,16 L21,16 L21,18 L21,18 Z M21,15 L9,15 L9,13 L21,13 L21,15 L21,15 Z M21,12 L9,12 L9,10 L21,10 L21,12 L21,12 Z" id="path-1"></path>
    </defs>
    <g id="Symbols" stroke="none" stroke-width="1" fill="none" fill-rule="evenodd">
        <g id="3.-Icons/ic_comment">
            <mask id="mask-2" fill="white">
                <use xlink:href="#path-1"></use>
            </mask>
            <g id="Icon"></g>
            <g id="5.-Colors/Gray-85" mask="url(#mask-2)" fill="#D8D8D8">
                <g transform="translate(2.000000, 2.000000)" id="Gray-85">
                    <rect x="0" y="0" width="26" height="26"></rect>
                </g>
            </g>
        </g>
    </g>
</svg>