<?xml version="1.0" encoding="UTF-8"?>
<svg width="30px" height="30px" viewBox="0 0 30 30" version="1.1" xmlns="http://www.w3.org/2000/svg" xmlns:xlink="http://www.w3.org/1999/xlink">
    <!-- Generator: Sketch 48.2 (47327) - http://www.bohemiancoding.com/sketch -->
    <title>3. Icons/ic_location_city</title>
    <desc>Created with Sketch.</desc>
    <defs>
        <path d="M18,14 L18,8 L15,5 L12,8 L12,10 L6,10 L6,24 L24,24 L24,14 L18,14 L18,14 Z M10,22 L8,22 L8,20 L10,20 L10,22 L10,22 Z M10,18 L8,18 L8,16 L10,16 L10,18 L10,18 Z M10,14 L8,14 L8,12 L10,12 L10,14 L10,14 Z M16,22 L14,22 L14,20 L16,20 L16,22 L16,22 Z M16,18 L14,18 L14,16 L16,16 L16,18 L16,18 Z M16,14 L14,14 L14,12 L16,12 L16,14 L16,14 Z M16,10 L14,10 L14,8 L16,8 L16,10 L16,10 Z M22,22 L20,22 L20,20 L22,20 L22,22 L22,22 Z M22,18 L20,18 L20,16 L22,16 L22,18 L22,18 Z" id="path-1"></path>
    </defs>
    <g id="Symbols" stroke="none" stroke-width="1" fill="none" fill-rule="evenodd">
        <g id="3.-Icons/ic_location_city">
            <mask id="mask-2" fill="white">
                <use xlink:href="#path-1"></use>
            </mask>
            <g id="Icon"></g>
            <g id="5.-Colors/Gray-85" mask="url(#mask-2)" fill="#D8D8D8">
                <g transform="translate(2.000000, 2.000000)" id="Gray-85">
                    <rect x="0" y="0" width="26" height="26"></rect>
                </g>
            </g>
        </g>
    </g>
</svg>