<?xml version="1.0" encoding="UTF-8"?>
<svg width="30px" height="30px" viewBox="0 0 30 30" version="1.1" xmlns="http://www.w3.org/2000/svg" xmlns:xlink="http://www.w3.org/1999/xlink">
    <!-- Generator: Sketch 48.2 (47327) - http://www.bohemiancoding.com/sketch -->
    <title>3. Icons/ic_notifications</title>
    <desc>Created with Sketch.</desc>
    <defs>
        <path d="M15,24.5 C15.14,24.5 15.27,24.49 15.4,24.46 C16.05,24.32 16.58,23.88 16.84,23.28 C16.94,23.04 16.99,22.78 16.99,22.5 L12.99,22.5 C13,23.6 13.89,24.5 15,24.5 L15,24.5 Z M21,13.5 C21,10.43 19.36,7.86 16.5,7.18 L16.5,6.5 C16.5,5.67 15.83,5 15,5 C14.17,5 13.5,5.67 13.5,6.5 L13.5,7.18 C10.63,7.86 9,10.42 9,13.5 L9,18.5 L7,20.5 L7,21.5 L23,21.5 L23,20.5 L21,18.5 L21,13.5 L21,13.5 Z" id="path-1"></path>
    </defs>
    <g id="Symbols" stroke="none" stroke-width="1" fill="none" fill-rule="evenodd">
        <g id="3.-Icons/ic_notifications">
            <mask id="mask-2" fill="white">
                <use xlink:href="#path-1"></use>
            </mask>
            <g id="Icon"></g>
            <g id="5.-Colors/Gray-85" mask="url(#mask-2)" fill="#D8D8D8">
                <g transform="translate(2.000000, 2.000000)" id="Gray-85">
                    <rect x="0" y="0" width="26" height="26"></rect>
                </g>
            </g>
        </g>
    </g>
</svg>