<?xml version="1.0" encoding="UTF-8"?>
<svg width="30px" height="30px" viewBox="0 0 30 30" version="1.1" xmlns="http://www.w3.org/2000/svg" xmlns:xlink="http://www.w3.org/1999/xlink">
    <!-- Generator: Sketch 48.2 (47327) - http://www.bohemiancoding.com/sketch -->
    <title>3. Icons/ic_open_in_new</title>
    <desc>Created with Sketch.</desc>
    <defs>
        <path d="M22,22 L8,22 L8,8 L15,8 L15,6 L8,6 C6.89,6 6,6.9 6,8 L6,22 C6,23.1 6.89,24 8,24 L22,24 C23.1,24 24,23.1 24,22 L24,15 L22,15 L22,22 L22,22 Z M17,6 L17,8 L20.59,8 L10.76,17.83 L12.17,19.24 L22,9.41 L22,13 L24,13 L24,6 L17,6 L17,6 Z" id="path-1"></path>
    </defs>
    <g id="Symbols" stroke="none" stroke-width="1" fill="none" fill-rule="evenodd">
        <g id="3.-Icons/ic_open_in_new">
            <mask id="mask-2" fill="white">
                <use xlink:href="#path-1"></use>
            </mask>
            <g id="Icon"></g>
            <g id="5.-Colors/Gray-85" mask="url(#mask-2)" fill="#D8D8D8">
                <g transform="translate(2.000000, 2.000000)" id="Gray-85">
                    <rect x="0" y="0" width="26" height="26"></rect>
                </g>
            </g>
        </g>
    </g>
</svg>