<?xml version="1.0" encoding="UTF-8"?>
<svg width="30px" height="30px" viewBox="0 0 30 30" version="1.1" xmlns="http://www.w3.org/2000/svg" xmlns:xlink="http://www.w3.org/1999/xlink">
    <!-- Generator: Sketch 48.2 (47327) - http://www.bohemiancoding.com/sketch -->
    <title>3. Icons/ic_subscriptions</title>
    <desc>Created with Sketch.</desc>
    <defs>
        <path d="M23,11 L7,11 L7,9 L23,9 L23,11 L23,11 Z M21,5 L9,5 L9,7 L21,7 L21,5 L21,5 Z M25,15 L25,23 C25,24.1 24.1,25 23,25 L7,25 C5.9,25 5,24.1 5,23 L5,15 C5,13.9 5.9,13 7,13 L23,13 C24.1,13 25,13.9 25,15 L25,15 Z M19,19 L13,15.73 L13,22.26 L19,19 L19,19 Z" id="path-1"></path>
    </defs>
    <g id="Symbols" stroke="none" stroke-width="1" fill="none" fill-rule="evenodd">
        <g id="3.-Icons/ic_subscriptions">
            <mask id="mask-2" fill="white">
                <use xlink:href="#path-1"></use>
            </mask>
            <g id="Icon"></g>
            <g id="5.-Colors/Gray-85" mask="url(#mask-2)" fill="#D8D8D8">
                <g transform="translate(2.000000, 2.000000)" id="Gray-85">
                    <rect x="0" y="0" width="26" height="26"></rect>
                </g>
            </g>
        </g>
    </g>
</svg>