<?xml version="1.0" encoding="UTF-8"?>
<svg width="30px" height="30px" viewBox="0 0 30 30" version="1.1" xmlns="http://www.w3.org/2000/svg" xmlns:xlink="http://www.w3.org/1999/xlink">
    <!-- Generator: Sketch 48.2 (47327) - http://www.bohemiancoding.com/sketch -->
    <title>3. Icons/ic_work</title>
    <desc>Created with Sketch.</desc>
    <defs>
        <path d="M23,9 L19,9 L19,7 C19,5.89 18.11,5 17,5 L13,5 C11.89,5 11,5.89 11,7 L11,9 L7,9 C5.89,9 5.01,9.89 5.01,11 L5,22 C5,23.11 5.89,24 7,24 L23,24 C24.11,24 25,23.11 25,22 L25,11 C25,9.89 24.11,9 23,9 L23,9 Z M17,9 L13,9 L13,7 L17,7 L17,9 L17,9 Z" id="path-1"></path>
    </defs>
    <g id="Symbols" stroke="none" stroke-width="1" fill="none" fill-rule="evenodd">
        <g id="3.-Icons/ic_work">
            <mask id="mask-2" fill="white">
                <use xlink:href="#path-1"></use>
            </mask>
            <g id="Icon"></g>
            <g id="5.-Colors/Gray-85" mask="url(#mask-2)" fill="#D8D8D8">
                <g transform="translate(2.000000, 2.000000)" id="Gray-85">
                    <rect x="0" y="0" width="26" height="26"></rect>
                </g>
            </g>
        </g>
    </g>
</svg>